<?xml version="1.0" standalone="no"?>
<!DOCTYPE svg PUBLIC "-//W3C//DTD SVG 20010904//EN"
 "http://www.w3.org/TR/2001/REC-SVG-20010904/DTD/svg10.dtd">
<svg version="1.0" xmlns="http://www.w3.org/2000/svg"
 width="470.000000pt" height="197.000000pt" viewBox="0 0 470.000000 197.000000"
 preserveAspectRatio="xMidYMid meet">

<g transform="translate(0.000000,197.000000) scale(0.100000,-0.100000)"
fill="#000000" stroke="none">
<path d="M228 1859 c-17 -9 -18 -45 -18 -522 0 -536 0 -537 43 -537 20 0 358
193 377 215 6 8 10 24 8 37 -6 46 -48 35 -198 -51 l-140 -80 0 415 c0 229 4
414 9 412 34 -13 998 -574 995 -579 -10 -17 -188 -110 -200 -105 -8 3 -147 82
-310 176 -162 93 -303 170 -313 170 -10 0 -24 -7 -31 -15 -32 -39 -12 -53 414
-298 228 -132 422 -244 431 -250 13 -10 -64 -58 -462 -287 -263 -151 -493
-283 -511 -293 l-33 -19 3 116 3 117 310 178 c244 140 311 183 313 200 4 26
-14 51 -37 51 -19 0 -626 -344 -659 -374 -23 -21 -23 -23 -20 -200 3 -191 9
-212 52 -204 31 6 1158 656 1178 679 29 34 9 57 -108 124 -60 34 -109 66 -109
70 0 4 49 36 109 70 60 35 113 70 118 79 21 37 67 8 -952 593 -118 68 -221
123 -230 123 -8 0 -23 -5 -32 -11z"/>
<path d="M1680 980 l0 -180 114 0 c101 0 117 2 147 23 46 31 62 81 56 177 -8
141 -32 160 -201 160 l-116 0 0 -180z m246 109 c16 -17 19 -37 19 -111 0 -117
-11 -128 -126 -128 l-79 0 0 130 0 130 83 0 c73 0 86 -3 103 -21z"/>
<path d="M2080 980 l0 -180 25 0 c24 0 25 2 25 75 l0 76 57 -3 58 -3 34 -72
c31 -65 38 -73 63 -73 l27 0 -33 73 c-33 73 -33 74 -12 83 33 14 47 53 43 113
-6 83 -21 91 -168 91 l-119 0 0 -180z m234 98 c7 -18 6 -35 -2 -53 -11 -24
-15 -25 -97 -25 l-85 0 0 55 0 56 87 -3 c85 -3 88 -4 97 -30z"/>
<path d="M2450 980 l0 -180 30 0 30 0 0 180 0 180 -30 0 -30 0 0 -180z"/>
<path d="M2600 980 l0 -180 25 0 c23 0 24 3 27 68 l3 67 96 3 c123 3 134 13
134 114 0 101 -11 108 -166 108 l-119 0 0 -180z m234 98 c6 -18 6 -38 0 -55
-9 -27 -12 -28 -97 -31 l-87 -3 0 61 0 61 87 -3 c85 -3 88 -4 97 -30z"/>
<path d="M3023 1150 c-13 -5 -32 -24 -43 -42 -19 -30 -20 -47 -18 -190 l3
-158 33 -32 32 -33 139 -3 c142 -4 181 4 181 33 0 13 -24 15 -144 15 -130 0
-146 2 -170 21 -26 20 -26 21 -26 163 0 195 -8 186 173 186 78 0 147 -4 153
-8 25 -16 34 -56 34 -151 l0 -101 -40 0 -40 0 0 100 c0 92 -2 100 -19 100 -11
0 -21 -6 -24 -12 -4 -10 -7 -10 -18 0 -17 15 -121 16 -137 0 -8 -8 -12 -48
-12 -115 0 -91 2 -103 19 -113 33 -17 109 -12 130 9 18 18 18 18 30 0 9 -15
24 -19 71 -19 82 0 90 13 90 147 0 119 -16 170 -59 196 -24 14 -55 17 -173 16
-78 0 -153 -4 -165 -9z m225 -222 l3 -78 -61 0 -60 0 0 80 0 81 58 -3 57 -3 3
-77z"/>
<path d="M3520 1140 c-13 -13 -20 -33 -20 -56 0 -31 3 -35 22 -32 14 2 24 12
28 28 6 24 9 25 85 25 l80 0 0 -45 0 -45 -67 -3 c-64 -3 -68 -4 -68 -27 0 -23
4 -24 67 -27 61 -3 67 -5 75 -29 5 -16 5 -37 -1 -52 -10 -26 -14 -27 -84 -27
-75 0 -97 9 -97 42 0 13 -8 18 -26 18 -25 0 -26 -2 -21 -37 10 -59 35 -73 133
-73 46 0 95 5 109 12 45 20 56 116 18 160 -13 15 -13 20 1 40 23 32 20 90 -5
122 -19 25 -25 26 -115 26 -81 0 -97 -3 -114 -20z"/>
<path d="M3864 1136 c-13 -21 -15 -50 -12 -166 4 -174 1 -170 136 -170 130 0
132 2 132 105 0 103 -3 105 -124 105 l-86 0 0 50 0 50 80 0 c73 0 80 -2 80
-20 0 -15 7 -20 25 -20 22 0 25 4 25 33 0 52 -12 57 -132 57 -103 0 -108 -1
-124 -24z m206 -231 l0 -55 -80 0 -80 0 0 55 0 55 80 0 80 0 0 -55z"/>
<path d="M4232 1148 c-8 -8 -12 -60 -12 -170 0 -145 1 -158 19 -168 11 -5 67
-10 125 -10 82 0 108 3 120 16 13 13 16 43 16 168 0 105 -4 156 -12 164 -17
17 -239 17 -256 0z m218 -168 l0 -130 -90 0 -90 0 0 130 0 130 90 0 90 0 0
-130z"/>
</g>
</svg>
